<svg width="27" height="24" viewBox="0 0 27 24" fill="none" xmlns="http://www.w3.org/2000/svg">
<path d="M1.84809 0.000484666C0.823955 0.00193877 0.00139339 0.859376 0 1.92717V16.1444C0.00139339 17.2132 0.822562 18.0697 1.84624 18.0711H13.6552L13.7151 18.438C14.2423 21.6172 16.8562 24 20.0137 24C23.5459 24 26.4 21.0215 26.4 17.3354C26.4 15.3612 25.5802 13.5944 24.2769 12.3739L24.1292 12.2198V1.92669C24.1279 0.857437 23.3081 0.0014541 22.2849 0L1.84809 0.000484666ZM1.42172 1.48416H22.7075V11.263L22.1367 11.0449C21.5088 10.8055 20.7744 10.6639 20.0099 10.6639C16.8558 10.6639 14.2436 13.0462 13.7216 16.1755C13.7211 16.1769 13.7202 16.1774 13.7197 16.1789L13.6714 16.5875H1.42125V1.92717L1.42172 1.48416ZM8.65896 4.7399C8.26231 4.7399 7.9488 5.06804 7.9488 5.48246V12.5853C7.9553 13.0012 8.2702 13.3264 8.66871 13.3264C8.80108 13.3264 8.9237 13.2891 9.03053 13.2241L9.06861 13.2018L9.07047 13.1999L14.697 9.67561C14.9046 9.53844 15.0369 9.30772 15.0369 9.03678C15.0369 8.77213 14.9023 8.55062 14.7067 8.41539L14.2358 8.10906L9.02217 4.84411C8.92324 4.78061 8.79505 4.74038 8.65896 4.74038V4.7399ZM18.4526 13.3312H21.5729V15.7009H23.8436V18.9572H21.5729V21.3269H18.4526V18.9572H16.1818V15.7009H18.4526V13.7742V13.3312Z" fill="#8A8A8A"/>
</svg>
