<svg width="66" height="66" viewBox="0 0 66 66" fill="#E01F26" xmlns="http://www.w3.org/2000/svg">
<circle cx="33" cy="33" r="33" fill="none"/>
<path d="M29 38.2434C29.8823 38.6126 30.5071 39.1863 30.8084 39.9075C30.8117 39.9148 30.8241 39.9455 30.8456 39.9955H34.2757C34.2971 39.945 34.3104 39.9136 34.3141 39.9044L34.3342 39.8599C34.6632 39.1456 35.2649 38.6026 36.1213 38.2434L38.8402 36.9917L38.9843 36.8705C38.8803 36.7515 38.7792 36.6292 38.6813 36.5026C37.4526 34.9063 36.7773 32.7853 36.7214 30.3642L36.345 30.1923L34.9439 29.0091L32.6915 31.2493H32.6906L32.4313 31.2492H32.4304L30.1783 29.0091L28.7772 30.1923L28.4002 30.3645C28.34 32.7177 27.5908 34.9004 26.2787 36.5286C26.2042 36.6206 26.1285 36.7092 26.0513 36.7975L26.2821 36.9917L29 38.2434Z" fill="white"/>
<path d="M32.5606 29.6096C34.7852 29.6096 37.7701 26.8316 37.8203 22.1701C37.853 18.9363 36.3123 17 32.5606 17C28.8088 17 27.2686 18.9363 27.3012 22.1701C27.3512 26.8316 29.9569 29.6096 32.5606 29.6096Z" fill="white"/>
<path d="M28.4336 39.5382L25.5174 38.1948L24.116 37.0142L21.8646 39.2528H21.8627H21.6041H21.6026L19.3511 37.0142L17.95 38.1948L15.033 39.5382C14.6016 39.7145 14.1774 39.9829 13.9619 40.4521C13.9619 40.4521 10.7916 48 12.5112 48H30.9561C32.6755 48 29.5055 40.4521 29.5055 40.4521C29.3173 40.002 28.8656 39.7145 28.4336 39.5382Z" fill="white"/>
<path d="M21.7332 25.0045C17.9814 25.0045 16.4411 26.9394 16.4736 30.1735C16.5244 34.8336 19.1299 37.6138 21.7332 37.6138C23.9581 37.6138 26.9429 34.8336 26.993 30.1735C27.0262 26.9393 25.4851 25.0045 21.7332 25.0045Z" fill="white"/>
<path d="M50.0883 39.5382L47.1714 38.1948L45.7704 37.0142L43.5187 39.2528H43.5175H43.2585H43.2571L41.0059 37.0142L39.6043 38.1948L36.6882 39.5382C36.2565 39.7145 35.8327 39.9829 35.6162 40.4521C35.6162 40.4521 32.4463 48 34.1658 48H52.6106C54.3303 48 51.1598 40.4521 51.1598 40.4521C50.9716 40.002 50.5196 39.7145 50.0883 39.5382Z" fill="white"/>
<path d="M43.3879 37.6142C45.6125 37.6142 48.5969 34.8338 48.6477 30.1738C48.6799 26.9393 47.1399 25.0049 43.3879 25.0049C39.6361 25.0049 38.0949 26.9396 38.1285 30.1738C38.1784 34.8336 40.7836 37.6142 43.3879 37.6142Z" fill="white"/>
</svg>
