<svg width="37" height="23" viewBox="0 0 37 23" fill="none" xmlns="http://www.w3.org/2000/svg">
<path d="M5.39483 6.63817C3.98462 6.63817 2.70218 5.35545 2.7019 3.94524C2.70163 2.53448 3.98462 1.24898 5.39483 1.24898C6.80559 1.24898 8.0897 2.53336 8.08775 3.94524C8.0858 5.35545 6.80392 6.63817 5.39483 6.63817V6.63817Z" fill="#E01F26"/>
<path d="M0 10.2875C0 10.439 0.0033572 10.5853 0.0317339 10.729L2.02763 20.8337C2.22219 21.8188 3.24465 22.6721 4.38094 22.6721H6.40801C7.54375 22.6721 8.56776 21.819 8.76133 20.8337L10.7466 10.729C10.7749 10.5853 10.7884 10.439 10.7884 10.2875C10.7884 8.94468 9.70443 7.85014 8.36159 7.85014H2.42653C1.08396 7.85014 0 8.94413 0 10.2875Z" fill="#E01F26"/>
<path d="M13.1061 10.2875C13.1061 10.439 13.1094 10.5853 13.1378 10.729L15.1337 20.8337C15.3283 21.8188 16.3507 22.6721 17.487 22.6721H19.5141C20.6498 22.6721 21.6738 21.819 21.8674 20.8337L23.8527 10.729C23.881 10.5853 23.8945 10.439 23.8945 10.2875C23.8945 8.94468 22.8105 7.85014 21.4677 7.85014H15.5326C14.19 7.85014 13.1061 8.94413 13.1061 10.2875V10.2875Z" fill="#E01F26"/>
<path d="M31.6075 6.63817C30.1973 6.63817 28.9148 5.35545 28.9146 3.94524C28.9143 2.53448 30.1973 1.24898 31.6075 1.24898C33.0182 1.24898 34.3023 2.53336 34.3004 3.94524C34.2984 5.35545 33.0166 6.63817 31.6075 6.63817V6.63817Z" fill="#E01F26"/>
<path d="M26.2115 10.2875C26.2115 10.439 26.2149 10.5853 26.2433 10.729L28.2392 20.8337C28.4337 21.8188 29.4562 22.6721 30.5925 22.6721H32.6196C33.7553 22.6721 34.7793 21.819 34.9729 20.8337L36.9582 10.729C36.9864 10.5853 36.9999 10.439 36.9999 10.2875C36.9999 8.94468 35.916 7.85014 34.5731 7.85014H28.6381C27.2955 7.85014 26.2115 8.94413 26.2115 10.2875V10.2875Z" fill="#E01F26"/>
<path d="M15.0159 1.44339L17.0533 3.4808L15.0159 5.52883L16.4593 6.97222L18.4967 4.92418L20.5447 6.97222L21.9881 5.52883L19.9401 3.4808L21.9881 1.44339L20.5447 0L18.4967 2.03741L16.4593 0L15.0159 1.44339Z" fill="#E01F26"/>
</svg>
