<svg width="28" height="24" viewBox="0 0 28 24" fill="none" xmlns="http://www.w3.org/2000/svg">
<path d="M24.6878 13.2936L24.1731 22.838C24.136 23.2044 23.9875 23.4975 23.7276 23.7174C23.4678 23.9372 23.1523 24.0288 22.7811 23.9921L4.40718 23.1128C4.03598 23.0762 3.72975 22.948 3.48848 22.7281C3.2472 22.5083 3.14513 22.2152 3.18225 21.8488L3.2936 19.3208L2.45842 19.3757C2.12435 19.4124 1.83668 19.3299 1.59541 19.1284C1.35413 18.9269 1.21494 18.6796 1.17782 18.3865L0.00856606 5.4165C-0.0285532 5.12339 0.0549639 4.85777 0.25912 4.61962C0.463276 4.38147 0.732386 4.24407 1.06646 4.20744L14.5572 3.12776C14.3183 3.66423 14.1464 4.22828 14.0417 4.81895L2.23571 5.8012C1.86452 5.8012 1.67892 5.96608 1.67892 6.29582V6.35078L2.56978 16.1332L3.572 14.7593L3.96175 7.39497C3.99887 7.06523 4.13806 6.78128 4.37934 6.54313C4.62061 6.30498 4.92684 6.18591 5.29803 6.18591L13.928 6.61376C13.9558 7.25557 14.0558 7.86954 14.2275 8.45462L6.30025 8.10942C5.92905 8.10942 5.70634 8.27429 5.6321 8.60404V8.659L5.46507 12.1213L5.07532 19.1559V19.5406L5.40939 19.1559L11.0886 13.1655C11.3113 12.9457 11.5712 12.8358 11.8681 12.8358C12.2022 12.8358 12.462 12.964 12.6476 13.2205L15.0418 15.9134L15.2088 16.0783C15.3573 16.2248 15.5429 16.2981 15.7656 16.2981C15.877 16.2981 16.044 16.2431 16.2667 16.1332L17.2133 15.4737C17.3988 15.3272 17.603 15.2539 17.8257 15.2539C18.1227 15.2539 18.3268 15.3455 18.4382 15.5287L19.9415 17.3423L22.5584 20.365L22.8933 13.8198C23.5215 13.7194 24.12 13.5439 24.6878 13.2936ZM17.19 1.83C18.41 0.609994 19.88 0 21.6 0C23.32 0 24.79 0.609994 26.01 1.83C27.23 3.05001 27.84 4.51999 27.84 6.24C27.84 7.96001 27.23 9.42999 26.01 10.65C24.79 11.87 23.32 12.48 21.6 12.48C19.88 12.48 18.41 11.87 17.19 10.65C15.97 9.42999 15.36 7.96001 15.36 6.24C15.36 4.51999 15.97 3.05001 17.19 1.83ZM24.81 6.87V5.61H22.23V3.03H20.97V5.61H18.39V6.87H20.97V9.45H22.23V6.87H24.81Z" fill="#8A8A8A"/>
</svg>
