<svg width="66" height="66" viewBox="0 0 66 66" fill="#E01F26" xmlns="http://www.w3.org/2000/svg">
<circle cx="33" cy="33" r="33" fill="none"/>
<path d="M39.4336 36.5337L36.5174 35.1903L35.116 34.0097L32.8646 36.2484H32.8627H32.6041H32.6026L30.3511 34.0097L28.95 35.1903L26.033 36.5337C25.6016 36.7101 25.1774 36.9784 24.9619 37.4477C24.9619 37.4477 21.7916 44.9956 23.5112 44.9956H41.9561C43.6755 44.9956 40.5055 37.4477 40.5055 37.4477C40.3173 36.9975 39.8656 36.7101 39.4336 36.5337Z" fill="white"/>
<path d="M32.7332 22C28.9814 22 27.4411 23.9349 27.4736 27.169C27.5244 31.8291 30.1299 34.6093 32.7332 34.6093C34.9581 34.6093 37.9429 31.8291 37.993 27.169C38.0262 23.9348 36.4851 22 32.7332 22Z" fill="white"/>
</svg>
