<svg width="16" height="16" viewBox="0 0 16 16" fill="none" xmlns="http://www.w3.org/2000/svg">
<path d="M5.66149 8.85077C5.66149 8.65274 5.50089 8.49231 5.30274 8.49231H4.05082C3.85289 8.49231 3.69226 8.65274 3.69226 8.85077V10.1028C3.69226 10.301 3.85289 10.4615 4.05082 10.4615H5.30274C5.50089 10.4615 5.66149 10.301 5.66149 10.1028V8.85077Z" fill="#898989"/>
<path d="M8.86156 8.85077C8.86156 8.65274 8.70092 8.49231 8.50313 8.49231H7.25093C7.05298 8.49231 6.89233 8.65274 6.89233 8.85077V10.1028C6.89233 10.301 7.05298 10.4615 7.25093 10.4615H8.50313C8.70092 10.4615 8.86156 10.301 8.86156 10.1028V8.85077Z" fill="#898989"/>
<path d="M11.9385 8.85077C11.9385 8.65274 11.7778 8.49231 11.5799 8.49231H10.328C10.1298 8.49231 9.96924 8.65274 9.96924 8.85077V10.1028C9.96924 10.301 10.1298 10.4615 10.328 10.4615H11.5799C11.7778 10.4615 11.9385 10.301 11.9385 10.1028V8.85077Z" fill="#898989"/>
<path d="M5.66149 11.9279C5.66149 11.7295 5.50089 11.5692 5.30274 11.5692H4.05082C3.85289 11.5692 3.69226 11.7295 3.69226 11.9279V13.1798C3.69226 13.378 3.85289 13.5385 4.05082 13.5385H5.30274C5.50089 13.5385 5.66149 13.3779 5.66149 13.1798V11.9279Z" fill="#898989"/>
<path d="M8.86156 11.9279C8.86156 11.7295 8.70092 11.5692 8.50313 11.5692H7.25093C7.05298 11.5692 6.89233 11.7295 6.89233 11.9279V13.1798C6.89233 13.378 7.05298 13.5385 7.25093 13.5385H8.50313C8.70092 13.5385 8.86156 13.3779 8.86156 13.1798V11.9279Z" fill="#898989"/>
<path d="M11.9385 11.9279C11.9385 11.7295 11.7778 11.5692 11.5801 11.5692H10.328C10.1298 11.5692 9.96924 11.7295 9.96924 11.9279V13.1798C9.96924 13.378 10.1298 13.5385 10.328 13.5385H11.5801C11.7778 13.5385 11.9385 13.3779 11.9385 13.1798V11.9279Z" fill="#898989"/>
<path fill-rule="evenodd" clip-rule="evenodd" d="M14.2395 3.77879V1.85307C15.0032 1.87599 15.6308 2.50537 15.6308 3.27895V14.5646C15.6308 15.3514 14.9882 16 14.198 16H1.43281C0.641434 16 0 15.3527 0 14.5646V3.27895C0 2.50537 0.627582 1.87599 1.39132 1.85307V3.77879C1.39132 4.6492 2.10031 5.35061 2.97415 5.35061H3.97287C4.84667 5.35061 5.56506 4.6492 5.56506 3.77879V1.84615H10.0657V3.77879C10.0657 4.6492 10.7841 5.35061 11.6581 5.35061H12.6566C13.5305 5.35061 14.2395 4.6492 14.2395 3.77879ZM13.1563 14.4787C13.4984 14.4787 13.7757 14.2024 13.7757 13.8618L13.7757 8.03237C13.7757 7.69164 13.4984 7.41532 13.1562 7.41532H2.44723C2.10506 7.41532 1.8278 7.69164 1.8278 8.03237V13.8618C1.8278 14.2024 2.10509 14.4787 2.44723 14.4787H13.1563Z" fill="#898989"/>
<path d="M3.00936 4.30769H4.00604C4.30857 4.30769 4.55386 4.06198 4.55386 3.75849V0.549397C4.55386 0.245874 4.30857 0 4.00604 0H3.00936C2.7068 0 2.46155 0.245874 2.46155 0.549397V3.75849C2.46155 4.06198 2.7068 4.30769 3.00936 4.30769Z" fill="#898989"/>
<path d="M11.6247 4.30769H12.6215C12.9239 4.30769 13.1692 4.06198 13.1692 3.75849V0.549397C13.1692 0.245874 12.9239 0 12.6215 0H11.6247C11.3222 0 11.0769 0.245874 11.0769 0.549397V3.75849C11.0769 4.06198 11.3222 4.30769 11.6247 4.30769Z" fill="#898989"/>
</svg>
