<svg width="25" height="22" viewBox="0 0 25 22" fill="none" xmlns="http://www.w3.org/2000/svg">
<path d="M23.5147 5.84289V5.72027C23.8315 5.52215 24.0755 5.22672 24.2103 4.87825C24.3451 4.52978 24.3633 4.14703 24.2622 3.78733C24.1612 3.42764 23.9463 3.11036 23.6498 2.88303C23.3533 2.6557 22.9912 2.53056 22.6176 2.52635C22.5668 2.52338 22.5158 2.52338 22.4651 2.52635C22.6057 2.39663 22.7183 2.23951 22.796 2.06465C22.8736 1.88978 22.9147 1.70088 22.9166 1.50956C22.9013 1.16805 22.7728 0.84134 22.5513 0.580907C22.3299 0.320474 22.0281 0.141119 21.6935 0.0710998C21.6327 0.0535461 21.5708 0.0405512 21.5081 0.0322227H20.8501C18.8375 0.0322227 13.8911 0.0112889 13.8911 0.0112889C13.8911 0.0112889 12.973 -0.144221 10.9933 0.699118C9.0135 1.54246 8.36455 1.20751 8.43632 3.82426C8.50809 6.441 8.43632 9.43156 8.43632 9.43156C8.43632 9.43156 8.1881 11.525 9.68338 12.8707C11.1787 14.2165 12.7906 16.7943 13.2721 18.4033C13.7535 20.0122 13.7206 21.4506 15.1621 21.8783C16.6035 22.3059 17.0491 20.5146 17.0491 20.5146C17.0491 20.5146 17.6861 19.3004 16.8607 16.89C16.0353 14.4796 15.0455 13.1309 16.3882 13.095C17.731 13.0591 23.1918 12.9664 23.1918 12.9664C23.5994 12.9223 23.9785 12.736 24.2624 12.4401C24.5406 12.1517 24.6969 11.7672 24.699 11.3665C24.6936 11.0141 24.5741 10.6729 24.3584 10.3941C24.1427 10.1154 23.8425 9.91406 23.5028 9.82034V9.65286C23.9389 9.56609 24.3296 9.32592 24.6039 8.97589C24.8782 8.62587 25.018 8.18915 24.9981 7.74488C25.0171 7.30332 24.8783 6.8694 24.6065 6.52088C24.3347 6.17236 23.9476 5.93201 23.5147 5.84289V5.84289Z" fill="#E01F26"/>
<path d="M2.54198 13.0023H6.61812C6.8164 13.0023 7.00657 12.9235 7.14678 12.7833C7.28699 12.6431 7.36576 12.4529 7.36576 12.2547V0.770895C7.36576 0.571022 7.28636 0.379336 7.14503 0.238004C7.00369 0.0966726 6.81201 0.0172729 6.61213 0.0172729H0L2.54198 13.0023Z" fill="#E01F26"/>
</svg>
