<svg width="12" height="16" viewBox="0 0 12 16" fill="none" xmlns="http://www.w3.org/2000/svg">
<path fill-rule="evenodd" clip-rule="evenodd" d="M0.144043 5.87331C0.144043 2.63478 2.77882 0 6.01702 0C9.25539 0 11.8902 2.63478 11.8905 5.87331C11.8905 6.71804 11.7178 7.52457 11.3769 8.27069C9.90796 11.4842 7.09261 14.8766 6.26486 15.8395C6.20282 15.9115 6.11237 15.953 6.01719 15.953C5.922 15.953 5.83155 15.9115 5.76951 15.8395C4.94143 14.8764 2.12608 11.4839 0.657676 8.27069C0.316941 7.52457 0.144043 6.71804 0.144043 5.87331ZM2.96625 5.87314C2.96625 7.55527 4.3349 8.92392 6.01702 8.92392C7.69931 8.92392 9.06796 7.55527 9.0678 5.87314C9.0678 4.19086 7.69915 2.8222 6.01702 2.8222C4.3349 2.8222 2.96625 4.19086 2.96625 5.87314Z" fill="#898989"/>
</svg>
