<svg width="16" height="16" viewBox="0 0 16 16" fill="none" xmlns="http://www.w3.org/2000/svg">
<g clip-path="url(#clip0)">
<path d="M15.9501 7.11163C15.9248 6.88675 15.6625 6.71757 15.4357 6.71757C14.7026 6.71757 14.0521 6.28732 13.7792 5.62139C13.5007 4.93948 13.6804 4.14437 14.2266 3.64334C14.3986 3.48606 14.4196 3.22271 14.2754 3.03989C13.9 2.56342 13.4737 2.13296 13.008 1.75994C12.8258 1.6138 12.5581 1.63414 12.4 1.80914C11.9232 2.33723 11.0666 2.53346 10.4047 2.25731C9.71615 1.96759 9.28154 1.26963 9.32423 0.520461C9.33828 0.284993 9.16612 0.0803856 8.93148 0.0530538C8.33385 -0.0161404 7.73096 -0.0181471 7.1316 0.0483486C6.89994 0.0739505 6.72792 0.273714 6.7356 0.506207C6.76155 1.24804 6.32203 1.93369 5.64012 2.21302C4.98616 2.48018 4.13556 2.2854 3.65971 1.76194C3.50243 1.58951 3.23942 1.56834 3.05599 1.71136C2.57661 2.08757 2.14062 2.51831 1.76185 2.9909C1.61426 3.17462 1.63605 3.44088 1.80952 3.59871C2.36647 4.10306 2.54603 4.90503 2.25687 5.59489C1.98078 6.25258 1.2979 6.67626 0.516214 6.67626C0.262548 6.6681 0.08202 6.83852 0.0539963 7.06922C-0.0163051 7.67003 -0.0170662 8.28254 0.0506058 8.88826C0.0758617 9.11411 0.345927 9.28184 0.575237 9.28184C1.27202 9.26413 1.94058 9.69521 2.22144 10.3779C2.50091 11.0599 2.32101 11.8546 1.77396 12.3563C1.60284 12.5136 1.58098 12.7764 1.72545 12.959C2.09696 13.4325 2.52375 13.8632 2.99081 14.2394C3.17417 14.3871 3.44085 14.3664 3.59979 14.1912C4.07847 13.6618 4.93489 13.4659 5.59411 13.7427C6.28466 14.0316 6.71907 14.7295 6.67665 15.4789C6.66274 15.7143 6.83531 15.9196 7.06912 15.9463C7.37496 15.9821 7.68239 15.9998 7.99079 15.9998C8.28348 15.9998 8.57624 15.9838 8.869 15.9512C9.10094 15.9256 9.27268 15.7256 9.26486 15.4931C9.23808 14.7516 9.67857 14.0659 10.3597 13.7871C11.018 13.5182 11.8648 13.715 12.3409 14.2377C12.499 14.4098 12.7604 14.4307 12.9446 14.2882C13.4232 13.9129 13.8583 13.4824 14.2388 13.0086C14.3865 12.8252 14.3655 12.5586 14.1911 12.4005C13.6343 11.8965 13.4537 11.0942 13.7429 10.405C14.0147 9.75617 14.6722 9.32052 15.3794 9.32052L15.4783 9.32315C15.7079 9.34176 15.9189 9.16497 15.9466 8.93075C16.0173 8.32938 16.018 7.71757 15.9501 7.11163ZM8.00041 12.6119C5.45316 12.6119 3.38833 10.5471 3.38833 7.99988C3.38833 5.4527 5.45323 3.38787 8.00041 3.38787C10.5476 3.38787 12.6125 5.4527 12.6125 7.99988C12.6125 8.86446 12.3741 9.67313 11.9601 10.3647L9.94061 8.34509C10.0868 8.00036 10.164 7.62664 10.164 7.24096C10.164 6.4857 9.86983 5.7757 9.33572 5.24173C8.80174 4.70775 8.09174 4.41368 7.33663 4.41368C7.08462 4.41368 6.83379 4.44717 6.59113 4.51325C6.48484 4.54224 6.39794 4.62984 6.36963 4.73633C6.34071 4.84524 6.3733 4.95685 6.45841 5.04203C6.45841 5.04203 7.45543 6.04673 7.78902 6.38025C7.82396 6.41519 7.82389 6.49857 7.81898 6.5286L7.81586 6.55053C7.78224 6.91726 7.7174 7.35748 7.66391 7.52666C7.65672 7.53379 7.64994 7.53981 7.6426 7.54714C7.63492 7.55482 7.62786 7.56222 7.62046 7.56984C7.44907 7.62485 7.00207 7.69044 6.62953 7.72379L6.6296 7.72179L6.61285 7.72601C6.60988 7.72635 6.60434 7.72677 6.59701 7.72677C6.55674 7.72677 6.49751 7.71549 6.44367 7.66173C6.09646 7.31451 5.13853 6.36343 5.13853 6.36343C5.05259 6.27777 4.96444 6.25978 4.90569 6.25978C4.76876 6.25978 4.64614 6.35873 4.60753 6.50065C4.34383 7.47649 4.62338 8.52617 5.33726 9.24012C5.87137 9.77416 6.58144 10.0682 7.33669 10.0682C7.72238 10.0682 8.0961 9.99108 8.44076 9.84488L10.4822 11.8863C9.76548 12.3449 8.91439 12.6119 8.00041 12.6119Z" fill="white"/>
</g>
<defs>
<clipPath id="clip0">
<rect width="16" height="16" fill="white"/>
</clipPath>
</defs>
</svg>
