<svg width="39" height="31" viewBox="0 0 39 31" fill="none" xmlns="http://www.w3.org/2000/svg">
<path d="M4.88004 3.44328C3.41005 3.44328 2.21484 4.63927 2.21484 6.10966C2.21484 7.58004 3.41005 8.77799 4.88004 8.77799C6.34925 8.77799 7.54916 7.58043 7.54916 6.10966C7.54916 4.63927 6.34925 3.44328 4.88004 3.44328Z" fill="#E01F26"/>
<path d="M15.754 0C14.284 0 13.088 1.19599 13.088 2.66716C13.088 4.13754 14.2836 5.33549 15.754 5.33549C17.2236 5.33549 18.4223 4.13754 18.4223 2.66716C18.4231 1.19599 17.2232 0 15.754 0Z" fill="#E01F26"/>
<path d="M36.4884 6.00856C35.0968 5.53072 33.5782 6.27316 33.1 7.66515C32.6225 9.05517 33.3638 10.5785 34.7554 11.0544C36.1442 11.5322 37.6683 10.7874 38.1458 9.39739C38.6244 8.00579 37.8769 6.48445 36.4884 6.00856Z" fill="#E01F26"/>
<path d="M2.11287 19.8798V30.3721H7.66906V19.8798H9.74979L9.75018 11.9485C9.75018 10.6302 8.6812 9.56085 7.3633 9.56085H2.38688C1.06859 9.56085 0 10.6302 0 11.9485L0.010584 19.8798H2.11287Z" fill="#E01F26"/>
<path d="M26.7817 11.4409C26.7817 11.4409 20.0511 6.80313 20.0401 6.79608C19.6497 6.51658 18.8489 6.12302 18.1001 6.12302H13.3652C12.0504 6.12302 10.9842 7.19121 10.9842 8.5095L10.9795 17.7826H13.0826V30.3716H19.0061V9.56084H19.0111L25.1636 13.7925C25.4109 13.9618 25.6924 14.0437 25.9715 14.0437C26.4258 14.0437 26.8727 13.8274 27.1486 13.4252C27.5951 12.7748 27.4305 11.8866 26.7817 11.4409Z" fill="#E01F26"/>
<path d="M31.2406 30.1168L34.0085 22.0566L35.9771 22.7343L38.4193 15.6109C38.847 14.3644 38.1864 13.0084 36.9426 12.5804L32.2453 10.9673C31.0011 10.5412 29.6452 11.2041 29.2175 12.451L26.7632 19.5697L28.7526 20.2534L25.7217 29.078L30.9717 30.8828H38.6129V30.118H31.2406V30.1168Z" fill="#E01F26"/>
</svg>
