<svg width="20" height="20" viewBox="0 0 20 20" fill="none" xmlns="http://www.w3.org/2000/svg">
<path d="M1.86296 9.50029H19.863C19.7667 9.33353 19.6243 9.1981 19.453 9.11029L1.45296 0.110289C1.28359 0.0233814 1.09293 -0.0133748 0.903388 0.00433935C0.713846 0.0220535 0.533298 0.0935022 0.382963 0.210289C0.235029 0.326284 0.122788 0.481628 0.0591129 0.658503C-0.00456197 0.835377 -0.0170913 1.02662 0.0229624 1.21029L1.86296 9.50029Z" fill="#E01F26"/>
<path d="M1.86286 10.5003L0.0428601 18.7903C0.0111005 18.938 0.0132103 19.0909 0.0490309 19.2377C0.0848515 19.3844 0.153452 19.5211 0.249682 19.6376C0.345912 19.754 0.46727 19.8471 0.604645 19.91C0.74202 19.9728 0.891841 20.0037 1.04286 20.0003C1.19974 20.0022 1.35454 19.9643 1.49286 19.8903L19.4929 10.8903C19.6642 10.8025 19.8066 10.667 19.9029 10.5003H1.86286Z" fill="#E01F26"/>
</svg>
