<svg width="24" height="24" viewBox="0 0 24 24" fill="none" xmlns="http://www.w3.org/2000/svg">
<path fill-rule="evenodd" clip-rule="evenodd" d="M18.1 11.1C18.1 12.7 17.6 14.1 16.7 15.3L19.7 18.4C20.1 18.8 20.1 19.4 19.7 19.8C19.5 20 19.2 20.1 19 20.1C18.8 20.1 18.5 20 18.3 19.8L15.3 16.8C14.2 17.7 12.7 18.2 11.1 18.2C7.2 18.2 4 15 4 11.1C4 7.2 7.2 4 11.1 4C15 4 18.1 7.2 18.1 11.1ZM6 11.1C6 13.9 8.3 16.1 11.1 16.1C13.9 16.1 16.2 13.9 16.2 11.1C16.2 8.3 13.9 6 11.1 6C8.3 6 6 8.3 6 11.1Z" fill="#8C8C8C"/>
</svg>
