<svg width="10" height="16" viewBox="0 0 10 16" fill="none" xmlns="http://www.w3.org/2000/svg">
<path fill-rule="evenodd" clip-rule="evenodd" d="M7.169 8.8965C6.84088 8.73337 6.60938 8.39262 6.60938 8C6.60938 7.60738 6.82713 7.25875 7.15525 7.09575C8.86038 6.03813 10 4.15425 10 2C10 0.8955 9.1045 0 8 0H2C0.8955 0 0 0.8955 0 2C0 4.15425 1.13963 6.03813 2.8445 7.09575C3.17288 7.25887 3.39062 7.6075 3.39062 8C3.39062 8.3925 3.15913 8.73337 2.831 8.8965C1.125 9.95412 0 11.8447 0 14C0 15.1045 0.8955 16 2 16H8C9.1045 16 10 15.1045 10 14C10 11.8447 8.875 9.95412 7.169 8.8965ZM9 14C9 14.5518 8.55175 15 8 15V14H9ZM7 14H8V13H8.9005C8.635 11.6694 7.84475 10.5034 6.67287 9.76562C6.33938 9.5875 6.068 9.31875 5.88263 9H5V8H5.60938C5.60938 7.25875 6.0195 6.56938 6.65912 6.22662C8.126 5.30275 9 3.72563 9 2C9 1.44875 8.55175 1 8 1H2C1.44825 1 1 1.44875 1 2C1 3.72563 1.874 5.30275 3.34087 6.2265C3.9805 6.56938 4.39062 7.25875 4.39062 8C4.39062 8.35575 4.292 8.7 4.11737 9H5V9.99975H4V9.17912C3.82413 9.41925 3.596 9.62212 3.32713 9.76562C2.46038 10.312 1.80387 11.0926 1.41225 12H2V13H1.0995C1.03463 13.3249 1 13.6591 1 14H2V15H3V14H4V15H5V14H6V15H7V14ZM7 13V14H6V13H7ZM7 12V13H8V12H7ZM6 12H7V11H6V9.99975H5V11H4V9.99975H3V11H2V12H3V13H2V14H3V13H4V14H5V13H6V12ZM5 12V13H4V12H5ZM5 12V11H6V12H5ZM4 12H3V11H4V12Z" fill="#898989"/>
</svg>
