<svg width="66" height="66" viewBox="0 0 66 66" fill="#E01F26" xmlns="http://www.w3.org/2000/svg">
<circle cx="33" cy="33" r="33" fill="none"/>
<path d="M18.7033 18.7497C19.168 19.1042 19.8318 19.015 20.1865 18.5506C23.3076 14.4613 28.0415 12.1163 33.1744 12.1163C38.3073 12.1163 43.0411 14.4615 46.1623 18.5506C46.3706 18.8234 46.6855 18.9666 47.0043 18.9666C47.228 18.9666 47.4538 18.8959 47.6454 18.7497C48.1098 18.395 48.1989 17.7311 47.8445 17.2666C44.3195 12.6485 38.9725 10 33.1744 10C27.3763 10 22.0292 12.6485 18.5044 17.2666C18.1498 17.7311 18.2389 18.395 18.7033 18.7497Z" fill="white"/>
<path d="M44.4217 24.394C44.4217 26.2161 45.9043 27.6987 47.7264 27.6987C49.5485 27.6987 51.0311 26.2161 51.0311 24.394C51.0311 22.5719 49.5485 21.0893 47.7264 21.0893C45.9043 21.0893 44.4217 22.5717 44.4217 24.394Z" fill="white"/>
<path d="M51.1089 28.7954C51.1013 28.7929 50.2686 28.5373 50.2686 28.5373C49.9672 28.4453 49.6396 28.502 49.3872 28.6909L47.7269 29.9341L46.0665 28.6909C45.814 28.5018 45.4863 28.4451 45.1851 28.5373C45.1851 28.5373 44.3524 28.7929 44.3448 28.7954C43.0051 29.2421 42.1049 30.491 42.1049 31.9031V36.8992C42.1049 37.0919 42.1612 37.2804 42.2673 37.4413L43.9428 39.9912V46.6874C43.9428 47.2329 44.3848 47.6749 44.9303 47.6749H50.5236C51.0691 47.6749 51.5111 47.2329 51.5111 46.6874V39.9912L53.1866 37.4413C53.2925 37.2803 53.3489 37.0918 53.3489 36.8992V31.9031C53.3489 30.491 52.4487 29.2421 51.1089 28.7954Z" fill="white"/>
<path d="M18.6216 27.6987C20.4437 27.6987 21.9263 26.2161 21.9263 24.394C21.9263 22.5719 20.4437 21.0893 18.6216 21.0893C16.7995 21.0893 15.3168 22.5717 15.3168 24.394C15.3168 26.2163 16.7994 27.6987 18.6216 27.6987Z" fill="white"/>
<path d="M22.004 28.7954C21.9963 28.7929 21.1637 28.5373 21.1637 28.5373C20.8621 28.4453 20.5348 28.502 20.2823 28.6909L18.6219 29.9341L16.9616 28.6909C16.7092 28.5018 16.3814 28.4451 16.0801 28.5373C16.0801 28.5373 15.2475 28.7929 15.2399 28.7954C13.9001 29.2421 13 30.491 13 31.9031V36.8992C13 37.0919 13.0563 37.2804 13.1623 37.4413L14.8378 39.9912V46.6874C14.8378 47.2329 15.2799 47.6749 15.8253 47.6749H21.4185C21.964 47.6749 22.406 47.2329 22.406 46.6874V39.9912L24.0815 37.4413C24.1874 37.2803 24.2438 37.0918 24.2438 36.8992V31.9031C24.2438 30.491 23.3436 29.2421 22.004 28.7954Z" fill="white"/>
<path d="M37.4366 19.7365C37.4366 17.3862 35.5244 15.474 33.1741 15.474C30.8238 15.474 28.9116 17.3862 28.9116 19.7365C28.9116 22.087 30.8238 23.999 33.1741 23.999C35.5244 23.999 37.4366 22.087 37.4366 19.7365Z" fill="white"/>
<path d="M37.8561 26.0648L37.849 26.0625L36.6324 25.6892C36.4405 25.6302 36.2355 25.7317 36.1665 25.9211L33.6083 32.9402C33.4607 33.345 32.8881 33.345 32.7404 32.9402L30.1823 25.9211C30.1265 25.7682 29.9823 25.6723 29.8276 25.6723C29.791 25.6723 28.5011 26.0619 28.5011 26.0619C26.947 26.5798 25.9087 28.0205 25.9087 29.6496V37.0747C25.9087 37.1484 25.9304 37.2205 25.9708 37.2821L28.6401 41.3441V51.6221C28.6401 51.8308 28.8093 52 29.018 52H37.3307C37.5395 52 37.7086 51.8308 37.7086 51.6221V41.3441L40.3779 37.2821C40.4184 37.2205 40.44 37.1484 40.44 37.0747V29.6301C40.4399 28.0081 39.3975 26.5697 37.8561 26.0648Z" fill="white"/>
<path d="M34.174 25.917C34.0683 25.8019 33.9138 25.7439 33.7574 25.7439H32.5914C32.4352 25.7439 32.2806 25.8019 32.1748 25.917C32.0112 26.0953 31.9874 26.3529 32.1035 26.5541L32.7267 27.4936L32.435 29.955L33.0096 31.4834C33.0656 31.6371 33.2829 31.6371 33.3391 31.4834L33.9136 29.955L33.6219 27.4936L34.2451 26.5541C34.3614 26.3529 34.3376 26.0953 34.174 25.917Z" fill="white"/>
</svg>
