<svg width="62" height="65" viewBox="0 0 62 65" fill="none" xmlns="http://www.w3.org/2000/svg">
<path d="M53.4511 34.6847V19.0172C53.4511 18.3234 53.1637 12.0217 46.6691 11.7326H44.2552C44.2552 9.13099 44.2552 6.52936 44.1978 3.63866C44.1978 2.1355 43.6805 0.979222 42.0712 0.343269C39.14 -0.755196 36.841 0.863594 36.8985 4.04336C36.8985 4.2168 36.8985 4.39024 36.8985 4.56368V28.9033V28.9612C36.8985 29.1346 36.8985 29.308 36.8985 29.4815V29.7706C36.956 30.1753 37.0709 30.5221 37.3583 30.8112C37.5882 31.0425 37.9331 31.2159 38.2779 31.2737H38.3354H40.4619H42.9908C43.738 31.2737 44.3127 30.6956 44.3127 29.944V19.7687C44.3127 19.4219 44.6001 19.1328 44.9449 19.1328H45.5197C45.8645 19.1328 46.1519 19.4219 46.1519 19.7687V28.4986C46.1519 28.6143 46.1519 28.6721 46.0944 28.7877C46.0944 30.1753 46.0944 31.5628 46.1519 32.9503V34.9738C46.1519 36.3035 46.1519 37.6911 46.2094 39.0208C46.2668 41.3333 47.4738 42.4896 49.7153 42.5474C52.0717 42.6052 53.3936 41.3912 53.4511 39.1364C53.5086 37.6332 53.4511 36.1879 53.4511 34.6847Z" fill="white"/>
<path d="M22.4151 30.3487C24.5416 30.9268 26.3808 30.5799 27.8751 29.3658C27.9326 29.308 28.0475 29.2502 28.22 29.1346C28.22 29.2502 28.22 29.308 28.22 29.4237C28.22 29.944 28.6797 30.4065 29.197 30.4065C30.7488 30.4065 32.3006 30.4065 33.8524 30.4065C34.3697 30.4065 34.8295 29.944 34.8295 29.4237C34.887 24.1048 34.9444 18.8437 35.0594 13.5248C35.0594 12.7732 34.4272 12.1373 33.68 12.1373C32.4156 12.1373 31.2086 12.1373 29.9442 12.1373C29.197 12.1373 28.6223 12.7154 28.5648 13.467V13.5826C28.3924 13.467 28.3349 13.3514 28.22 13.2936C27.7602 12.7732 27.1854 12.3685 26.5532 12.1951C25.2313 11.7326 24.0243 11.7326 22.8174 12.0795C21.0357 12.6576 20.0586 13.9295 19.5413 15.6061C18.3919 19.1906 18.4493 23.0063 19.1965 26.9377C19.5988 28.6721 20.8058 29.944 22.4151 30.3487ZM25.3462 18.4968C25.3462 17.7452 25.8635 17.0515 26.6107 16.878C27.5877 16.7046 28.5073 17.4562 28.5073 18.439V23.7001C28.5073 24.6829 27.6452 25.4345 26.6107 25.261C25.8635 25.0876 25.3462 24.3938 25.3462 23.6423V18.4968Z" fill="white"/>
<path d="M58.2214 44.0506C60.0605 44.0506 61.2675 43.0678 61.325 41.3912C61.3824 40.1193 61.325 38.9052 61.2675 37.6333C61.2675 37.0551 61.2675 36.477 61.2675 35.8988C61.2675 35.2629 61.2675 34.6269 61.21 34.0488C61.0951 32.43 59.8306 31.3315 58.1064 31.3315C56.4397 31.3315 55.0028 32.4878 55.0028 34.0488C54.9453 36.477 55.0028 38.963 55.0603 41.3912C55.1178 43.01 56.3822 44.0506 58.2214 44.0506Z" fill="white"/>
<path d="M13.449 12.0217C12.8742 11.7904 12.242 11.6748 11.6673 11.6748C8.10387 11.7904 6.78196 14.5655 6.66702 14.5077C6.66702 13.9874 6.66702 13.3514 6.66702 12.7733C6.66702 12.4264 6.37964 12.1373 6.0348 12.1373C4.31057 12.1373 2.58634 12.1373 0.862114 12.1373C0.517268 12.1373 0.229897 12.4264 0.229897 12.7733C0.114949 18.3812 0.0574743 24.047 0 29.7127C0 30.0596 0.287371 30.4065 0.689691 30.4065C2.47139 30.4065 4.19562 30.4065 5.97732 30.4065C6.32217 30.4065 6.60954 30.1174 6.60954 29.7706C6.60954 28.094 6.66702 26.4174 6.66702 24.7407C6.66702 23.7579 6.66702 22.7751 6.72449 21.7922V19.3062C6.72449 18.5547 7.24176 17.8609 7.98892 17.6875C8.96599 17.514 9.88557 18.2656 9.88557 19.2484C9.88557 19.2484 9.88557 27.2267 9.88557 29.7127C9.88557 30.1174 10.2304 30.4643 10.5753 30.4643C12.357 30.4643 14.9433 30.4643 14.9433 30.4643H15.4031C15.8054 30.4643 16.0928 30.1174 16.1503 29.7706C16.1503 29.308 16.1503 28.7299 16.1503 28.5565C16.2077 25.2611 16.2077 21.9657 16.2077 18.6703C16.2077 17.5718 16.1503 16.4734 15.9778 15.3749C15.6905 13.8717 15.0008 12.5998 13.449 12.0217Z" fill="white"/>
<path d="M54.0256 43.1834C53.5658 42.663 53.4509 42.9521 53.0486 43.1255C48.3357 45.4381 44.4849 43.299 44.4274 38.2114C44.4274 37.2285 44.4274 36.2457 44.37 35.205H44.0251C43.7952 38.1536 41.7261 40.4083 38.1053 41.3911C35.404 42.1427 32.5877 42.1427 29.7715 42.0849C29.6566 42.0849 29.4841 42.0849 29.3692 42.0271C38.1627 41.9115 41.1514 39.0208 42.071 36.766C42.4158 36.0723 42.5308 35.3207 42.4733 34.5113C42.4733 34.4535 42.4733 34.4535 42.4733 34.3956V34.3378C42.4733 34.0488 42.4158 33.9331 42.4158 33.9331C42.3009 33.0081 41.956 32.4878 40.8066 32.5456C40.2893 32.5456 39.772 32.5456 39.2548 32.5456L32.8176 32.1987C32.6452 32.1409 32.4728 32.1409 32.2429 32.1409C30.1738 32.0831 28.1047 31.9675 26.0357 31.8518C24.8287 31.794 24.0815 32.43 23.5643 33.5284V33.4128C21.4952 38.327 20.4607 43.8771 19.8285 47.635C19.0238 52.318 19.3687 54.168 20.9205 56.8274C23.3919 61.0479 27.0127 63.8229 32.3578 64.0542H47.7609C48.1058 63.9964 48.5656 63.9964 49.1403 63.9964C56.2097 63.9964 58.7385 59.6603 59.1409 58.7931C59.1409 58.7353 59.1983 58.6775 59.1983 58.6197C61.1524 54.2258 61.4398 49.4851 61.4398 44.7443C57.8189 46.1897 56.3821 45.9006 54.0256 43.1834Z" fill="white"/>
</svg>
