<?xml version="1.0" encoding="utf-8"?>
<!-- Generator: Adobe Illustrator 24.1.1, SVG Export Plug-In . SVG Version: 6.00 Build 0)  -->
<svg version="1.1" id="Layer_1" xmlns="http://www.w3.org/2000/svg" xmlns:xlink="http://www.w3.org/1999/xlink" x="0px" y="0px"
	 viewBox="0 0 32 32" style="enable-background:new 0 0 32 32;" xml:space="preserve">
<style type="text/css">
	.st0{fill-rule:evenodd;clip-rule:evenodd;}
</style>
<g>
	<path d="M25.36,13.48c-1.17-5.32-6.38-8.69-11.63-7.5c-3.39,0.77-6.14,3.33-7.18,6.69l-1.38-0.44c1.19-3.86,4.35-6.8,8.24-7.68
		c2.92-0.66,5.91-0.13,8.43,1.5c2.52,1.63,4.27,4.15,4.92,7.11L25.36,13.48z"/>
</g>
<g>
	<path class="st0" d="M11.29,24.65c-0.01,0.55-0.19,2.13,0.63,1.75c0.08-0.38-0.05-0.43-0.1-0.83c-0.11-1,0.23-2.02,0.32-2.87
		c0.06-0.63,0.2-1.26,0.48-1.72c0.33-0.53,0.93-0.53,1.65-0.54c0.24,0.05,0.28,0.1,0.55,0.04c0.15-0.12,0.19-0.09,0.28-0.3
		c0-1.42,0-2.83-0.01-4.25c0-1.64-0.33-3.39,0.98-3.16c1.35,0.24,1.02,1.9,1.02,3.22c0,1.39,0,2.79,0.01,4.18
		c0.08,0.23,0.03,0.08,0.18,0.25c0.17,0.1,0.07,0.09,0.27,0.1c0.46-0.07,1.06-0.15,1.39,0.17c0.31,0.3,0.4,0.73,0.72,0.93
		c0.36,0.22,0.79,0.14,0.99,0.3c0.46,0.11,0.81,0.58,1.03,0.95c0.32,0.55,0.4,0.79,0.39,1.54c-0.01,0.8-0.26,2.72-0.56,3.32
		c-0.17,1.07-0.98,2.48-1.67,3.37c-0.16,0.2-0.15,0.24-0.49,0.24l-5.51,0.01c-0.16-0.03-0.07-0.01-0.15-0.05
		c-0.16-0.16-0.45-0.81-0.59-1.06c-0.12-0.21-3.44-3.25-3.19-4.96c0.1-0.68,1.03-1.51,1.5-1.76L11.29,24.65L11.29,24.65z
		 M11.56,22.72c-0.79,0.6-2.44,1.53-2.21,2.97c0.21,1.29,1.21,2.61,1.83,3.34l0.65,0.69c0.13,0.13,0.17,0.18,0.3,0.34
		c0.13,0.15,0.2,0.17,0.33,0.3c0.36,0.36,0.57,1.44,1.1,1.53l5.13,0c1.1,0,1.1,0.2,1.83-0.8c0.34-0.46,0.7-1.07,0.95-1.67
		c0.59-1.39,1.61-4.87,0.88-6.44c-0.29-0.61-0.7-1.15-1.16-1.46c-0.41-0.27-0.55-0.22-1.04-0.31c-0.78-0.16-0.21-1.49-2.51-1.3
		c0-1.57,0-3.14-0.01-4.7c0-0.69,0.1-1.54-0.21-2.09c-0.66-1.16-2.36-1.34-2.81-0.08c-0.23,0.63,0,5.48-0.1,6.84
		C12.68,19.95,11.92,19.88,11.56,22.72z"/>
	<path d="M19.41,32.03c-0.07,0-0.15,0-0.24-0.01c-0.13-0.01-0.29-0.01-0.46-0.01l-5.14,0c-0.4-0.07-0.61-0.52-0.82-0.95
		c-0.12-0.25-0.23-0.48-0.36-0.61c-0.05-0.05-0.1-0.08-0.14-0.12c-0.06-0.05-0.12-0.1-0.2-0.19l-0.1-0.11
		c-0.07-0.08-0.11-0.13-0.2-0.22l-0.65-0.69c-0.74-0.87-1.66-2.16-1.86-3.4c-0.21-1.31,1.06-2.22,1.89-2.81
		c0.12-0.08,0.23-0.16,0.32-0.23c0.36-2.8,1.16-2.83,2.89-2.89l0.07,0c0.03-0.59,0.02-1.68,0.01-2.84c-0.02-1.82-0.05-3.54,0.1-3.93
		c0.2-0.54,0.63-0.88,1.2-0.93c0.7-0.07,1.44,0.34,1.81,1c0.27,0.47,0.25,1.14,0.23,1.73c0,0.14-0.01,0.29-0.01,0.42
		c0,1.53,0,3.06,0.01,4.58c1.47-0.08,1.77,0.47,1.99,0.89c0.12,0.22,0.21,0.38,0.43,0.43c0.13,0.03,0.23,0.04,0.32,0.05
		c0.26,0.04,0.43,0.06,0.76,0.28c0.46,0.3,0.89,0.84,1.2,1.51c0.74,1.59-0.27,5.08-0.88,6.53c-0.24,0.57-0.59,1.19-0.96,1.7
		C20.08,31.92,19.91,32.03,19.41,32.03z M18.73,31.79c0.17,0,0.32,0.01,0.45,0.01c0.64,0.02,0.7,0.02,1.28-0.76
		c0.36-0.49,0.7-1.09,0.94-1.65c0.6-1.41,1.59-4.82,0.88-6.35c-0.3-0.63-0.69-1.13-1.12-1.41c-0.28-0.19-0.42-0.21-0.67-0.24
		c-0.09-0.01-0.2-0.03-0.33-0.06c-0.33-0.06-0.45-0.3-0.58-0.54c-0.22-0.41-0.47-0.88-1.9-0.76l-0.12,0.01l0-0.12
		c0-1.57,0-3.14-0.01-4.71c0-0.14,0-0.28,0.01-0.43c0.02-0.59,0.03-1.2-0.2-1.61c-0.33-0.58-0.97-0.94-1.6-0.89
		c-0.48,0.04-0.84,0.32-1.01,0.79c-0.13,0.35-0.1,2.21-0.08,3.85c0.02,1.23,0.03,2.39-0.01,2.96l-0.01,0.1L14.36,20
		c-1.72,0.06-2.36,0.08-2.69,2.74l-0.01,0.05l-0.04,0.03c-0.11,0.08-0.23,0.17-0.37,0.27c-0.84,0.6-1.99,1.42-1.8,2.59
		c0.19,1.19,1.09,2.44,1.81,3.29l0.65,0.69c0.09,0.09,0.14,0.15,0.21,0.23l0.1,0.11c0.07,0.08,0.12,0.12,0.18,0.16
		c0.05,0.04,0.09,0.07,0.15,0.13c0.15,0.15,0.27,0.41,0.4,0.67c0.18,0.37,0.37,0.78,0.64,0.83h5.12
		C18.72,31.79,18.72,31.79,18.73,31.79z M13.84,31.47l-0.09-0.02c-0.04-0.01-0.06-0.01-0.09-0.04l-0.04-0.03
		c-0.12-0.13-0.3-0.47-0.45-0.77c-0.06-0.12-0.12-0.24-0.16-0.31c-0.02-0.03-0.15-0.17-0.3-0.32c-0.85-0.89-3.12-3.24-2.91-4.72
		c0.1-0.73,1.07-1.58,1.56-1.84l0.18-0.09l-0.14,1.32c0,0.06,0,0.14-0.01,0.22c-0.02,0.44-0.06,1.26,0.2,1.43
		c0.02,0.01,0.08,0.06,0.23,0c0.03-0.16,0-0.25-0.03-0.37c-0.03-0.09-0.06-0.2-0.08-0.37c-0.07-0.68,0.05-1.35,0.17-1.99
		c0.06-0.32,0.12-0.62,0.14-0.9c0.08-0.77,0.24-1.34,0.5-1.77c0.36-0.58,0.99-0.59,1.73-0.59l0.03,0c0.07,0.01,0.12,0.03,0.16,0.04
		c0.11,0.03,0.17,0.04,0.32,0.01c0.04-0.03,0.07-0.05,0.09-0.06c0.06-0.04,0.08-0.05,0.13-0.15l-0.01-4.22
		c0-0.28-0.01-0.56-0.02-0.84c-0.04-1.01-0.07-1.89,0.36-2.27c0.19-0.16,0.44-0.22,0.77-0.16c1.22,0.21,1.17,1.52,1.13,2.67
		c-0.01,0.23-0.02,0.45-0.02,0.66l0.01,4.16c0.01,0.04,0.02,0.07,0.03,0.08c0.03,0.02,0.06,0.04,0.11,0.1
		c0.04,0.03,0.07,0.05,0.09,0.06c0.02,0.01,0.04,0.01,0.06,0.01l0.05,0c0.39-0.06,1.08-0.17,1.46,0.2c0.15,0.14,0.25,0.31,0.34,0.47
		c0.11,0.18,0.21,0.35,0.36,0.44c0.17,0.11,0.37,0.14,0.55,0.16c0.16,0.03,0.32,0.05,0.43,0.13c0.38,0.1,0.74,0.44,1.07,1
		c0.33,0.56,0.42,0.83,0.41,1.6c-0.01,0.77-0.25,2.7-0.56,3.35c-0.18,1.09-0.98,2.49-1.69,3.4l-0.04,0.05
		c-0.14,0.19-0.2,0.23-0.53,0.23L13.84,31.47z M13.78,31.23l0.08,0.01l5.49-0.01c0.25-0.01,0.25-0.01,0.36-0.15l0.04-0.05
		c0.68-0.86,1.48-2.27,1.65-3.31l0.01-0.03c0.28-0.56,0.54-2.43,0.55-3.27c0.01-0.74-0.07-0.96-0.38-1.48
		c-0.3-0.52-0.63-0.82-0.96-0.9l-0.04-0.02c-0.07-0.06-0.2-0.08-0.35-0.1c-0.2-0.03-0.42-0.07-0.63-0.19
		c-0.2-0.12-0.32-0.32-0.43-0.52c-0.09-0.15-0.18-0.3-0.3-0.42c-0.28-0.27-0.82-0.22-1.3-0.14l-0.08,0
		c-0.09-0.01-0.12-0.01-0.18-0.06c-0.02-0.01-0.04-0.03-0.08-0.06l-0.02-0.02c-0.05-0.05-0.07-0.07-0.08-0.07
		c-0.06-0.04-0.07-0.06-0.12-0.21l-0.01-0.04l-0.01-4.18c0-0.22,0.01-0.45,0.02-0.67c0.04-1.16,0.09-2.26-0.95-2.44
		c-0.26-0.05-0.45-0.01-0.59,0.11c-0.35,0.31-0.32,1.18-0.29,2.1c0.01,0.28,0.02,0.56,0.02,0.84l0.01,4.27l-0.01,0.02
		c-0.08,0.17-0.13,0.21-0.22,0.27c-0.03,0.02-0.06,0.04-0.1,0.07l-0.05,0.02c-0.22,0.04-0.31,0.02-0.44-0.01
		c-0.04-0.01-0.09-0.02-0.15-0.03c-0.69,0.01-1.24,0.01-1.53,0.49c-0.24,0.39-0.4,0.95-0.47,1.67c-0.03,0.29-0.09,0.6-0.15,0.92
		c-0.12,0.63-0.24,1.28-0.17,1.93c0.02,0.15,0.04,0.24,0.07,0.33c0.04,0.15,0.08,0.28,0.03,0.54l-0.01,0.05l-0.05,0.02
		c-0.2,0.09-0.37,0.09-0.5,0c-0.36-0.24-0.32-1.08-0.29-1.63c0-0.08,0.01-0.16,0.01-0.22l0-0.01l0.09-0.9
		c-0.47,0.32-1.18,1-1.26,1.56c-0.19,1.36,2.02,3.66,2.85,4.53c0.22,0.23,0.3,0.32,0.33,0.36c0.04,0.08,0.1,0.19,0.17,0.32
		c0.13,0.25,0.3,0.59,0.4,0.7C13.77,31.22,13.77,31.23,13.78,31.23z"/>
</g>
<g>
	<path d="M21.09,14.35c-0.64-2.9-3.48-4.74-6.34-4.09c-1.85,0.42-3.35,1.82-3.91,3.65l-1.38-0.44c0.72-2.33,2.63-4.11,4.98-4.64
		c3.64-0.82,7.26,1.51,8.07,5.2L21.09,14.35z"/>
</g>
<g>
	<path d="M29.59,12.69C27.9,4.97,20.34,0.09,12.74,1.81c-4.91,1.11-8.89,4.83-10.4,9.7l-1.38-0.44C2.62,5.7,7.01,1.6,12.42,0.38
		C20.8-1.51,29.13,3.86,31,12.37L29.59,12.69z"/>
</g>
</svg>
