<?xml version="1.0" encoding="utf-8"?>
<!-- Generator: Adobe Illustrator 24.1.1, SVG Export Plug-In . SVG Version: 6.00 Build 0)  -->
<svg version="1.1" id="Layer_1" xmlns="http://www.w3.org/2000/svg" xmlns:xlink="http://www.w3.org/1999/xlink" x="0px" y="0px"
	 viewBox="0 0 32 32" style="enable-background:new 0 0 32 32;" xml:space="preserve">
<style type="text/css">
	.st0{fill-rule:evenodd;clip-rule:evenodd;}
</style>
<g>
	<path d="M5.86,31L5,7.78l11.32-0.43l0.05,1.44l-9.9,0.38L7.23,29.5l17.99-0.69l-0.21-5.64l1.42-0.05l0.26,7.08L5.86,31z
		 M24.59,12.05l-0.13-3.57L23.92,8.5l-0.03-0.72l0.03,0.72l-0.45,0.02l-0.05-1.44l2.41-0.09L26.01,12L24.59,12.05z"/>
</g>
<g>
	<path class="st0" d="M12.08,14.72c-0.19,0.68-0.91,2.58,0.22,2.37c0.22-0.44,0.07-0.55,0.14-1.07c0.18-1.27,0.93-2.43,1.31-3.46
		c0.28-0.76,0.64-1.49,1.15-1.98c0.58-0.55,1.33-0.36,2.22-0.13c0.29,0.14,0.32,0.21,0.67,0.23c0.23-0.1,0.26-0.05,0.44-0.27
		c0.45-1.76,0.89-3.52,1.34-5.27c0.52-2.03,0.66-4.32,2.22-3.6c1.6,0.73,0.66,2.68,0.25,4.33c-0.44,1.73-0.88,3.46-1.32,5.19
		c0.03,0.31,0.01,0.1,0.14,0.36c0.17,0.18,0.07,0.13,0.3,0.21c0.6,0.06,1.37,0.16,1.68,0.66c0.29,0.47,0.26,1.04,0.6,1.38
		c0.38,0.39,0.94,0.44,1.13,0.7c0.54,0.28,0.82,0.98,0.97,1.52c0.22,0.78,0.25,1.11,0,2.04c-0.27,0.99-1.19,3.29-1.75,3.94
		c-0.55,1.27-2,2.75-3.15,3.63c-0.26,0.2-0.26,0.25-0.68,0.14l-6.84-1.79c-0.19-0.09-0.09-0.03-0.17-0.11
		c-0.15-0.26-0.31-1.15-0.4-1.5c-0.08-0.3-3.23-5.16-2.39-7.2c0.34-0.81,1.75-1.53,2.42-1.69L12.08,14.72L12.08,14.72z M13.02,12.42
		c-1.17,0.49-3.51,1.1-3.69,2.96c-0.15,1.67,0.67,3.63,1.21,4.75l0.59,1.07c0.12,0.2,0.15,0.28,0.27,0.52
		c0.11,0.23,0.19,0.28,0.32,0.49c0.34,0.56,0.26,1.98,0.88,2.26l6.37,1.68c1.36,0.36,1.3,0.61,2.53-0.39
		c0.57-0.46,1.2-1.1,1.71-1.77c1.17-1.54,3.54-5.52,3.13-7.7c-0.16-0.86-0.5-1.66-0.98-2.19c-0.43-0.47-0.61-0.45-1.19-0.73
		c-0.92-0.45,0.22-1.92-2.7-2.44c0.49-1.95,0.99-3.89,1.48-5.84c0.22-0.85,0.62-1.88,0.4-2.66C22.92,0.78,20.86,0,19.9,1.41
		c-0.48,0.71-1.74,6.8-2.29,8.45C15.29,9.34,14.37,9.01,13.02,12.42z"/>
</g>
<g>
	<polygon points="8.41,12.14 8.39,11.64 12.47,11.5 12.49,12.01 	"/>
</g>
<g>
	<rect x="8.5" y="20.29" transform="matrix(0.9997 -0.025 0.025 0.9997 -0.5109 0.2328)" width="1.1" height="0.51"/>
</g>
<g>
	<rect x="8.66" y="22.86" transform="matrix(0.9994 -0.0346 0.0346 0.9994 -0.7941 0.3584)" width="2.58" height="0.51"/>
</g>
<g>
	<polygon points="8.73,26.36 8.71,25.85 14.95,25.64 14.97,26.15 	"/>
</g>
</svg>
