<?xml version="1.0" encoding="utf-8"?>
<!-- Generator: Adobe Illustrator 24.1.1, SVG Export Plug-In . SVG Version: 6.00 Build 0)  -->
<svg version="1.1" id="Layer_1" xmlns="http://www.w3.org/2000/svg" xmlns:xlink="http://www.w3.org/1999/xlink" x="0px" y="0px"
	 viewBox="0 0 32 32" style="enable-background:new 0 0 32 32;" xml:space="preserve">
<style type="text/css">
	.st0{fill-rule:evenodd;clip-rule:evenodd;}
	.st1{fill:#FFFFFF;}
</style>
<path class="st0" d="M15.32,27.48c-0.55-5.27-1.24-5.26-5.06-8l-0.42-0.05l-0.1-0.01c-0.49,0.38-1.06,0.6-1.68,0.6
	c-0.64,0-1.21-0.23-1.7-0.6l-0.04,0.01L5.9,19.48c-3.82,2.74-4.51,2.73-5.06,8l7.24-0.03L15.32,27.48z"/>
<path class="st1" d="M16.11,28.19l-8.03-0.03l-8.02,0.03l0.08-0.79c0.51-4.93,1.21-5.58,4.38-7.82c0.3-0.21,0.62-0.44,0.97-0.69
	l0.15-0.1l0.88-0.11l0.27,0.17c0.79,0.6,1.71,0.62,2.53,0l0.23-0.17l0.98,0.12l0.15,0.1c0.35,0.25,0.67,0.48,0.97,0.69
	c3.18,2.24,3.87,2.88,4.38,7.82L16.11,28.19z M8.08,26.74l6.45,0.03c-0.44-3.72-1-4.12-3.7-6.02c-0.26-0.18-0.54-0.38-0.83-0.59
	l-0.06-0.01c-1.17,0.77-2.59,0.76-3.75,0.01l-0.01,0c-0.3,0.21-0.57,0.41-0.83,0.59c-2.7,1.9-3.26,2.29-3.7,6.02L8.08,26.74z"/>
<path class="st0" d="M8.06,20.02c-2.59,0-3.98-3.68-3.98-5.78c0-1.88,1.79-3.41,4-3.41s4,1.52,4,3.41
	C12.08,16.29,10.6,20.02,8.06,20.02z"/>
<path class="st1" d="M8.06,20.73c-3.12,0-4.69-4.16-4.69-6.49c0-2.27,2.11-4.12,4.71-4.12s4.71,1.85,4.71,4.12
	C12.79,16.5,11.17,20.73,8.06,20.73z M8.08,11.54c-1.81,0-3.29,1.21-3.29,2.7c0,1.72,1.16,5.07,3.27,5.07
	c2.02,0,3.31-3.33,3.31-5.07C11.37,12.75,9.89,11.54,8.08,11.54z"/>
<path class="st0" d="M30.99,27.48c-0.55-5.27-1.24-5.26-5.06-8l-0.42-0.05l-0.1-0.01c-0.49,0.38-1.06,0.6-1.68,0.6
	c-0.64,0-1.21-0.23-1.7-0.6l-0.04,0.01l-0.42,0.05c-3.82,2.74-4.51,2.73-5.06,8l7.24-0.03L30.99,27.48z"/>
<path class="st1" d="M31.77,28.19l-8.03-0.03l-8.02,0.03l0.08-0.79c0.51-4.93,1.21-5.58,4.38-7.82c0.3-0.21,0.62-0.44,0.97-0.69
	l0.15-0.1l0.88-0.11l0.27,0.17c0.78,0.59,1.72,0.61,2.53,0l0.23-0.17l0.98,0.12l0.15,0.1c0.35,0.25,0.67,0.48,0.97,0.69
	c3.18,2.24,3.87,2.88,4.38,7.82L31.77,28.19z M23.74,26.74l6.45,0.03c-0.44-3.72-1-4.12-3.7-6.02c-0.26-0.18-0.54-0.38-0.83-0.59
	l-0.06-0.01c-1.18,0.77-2.59,0.76-3.75,0.01l-0.01,0c-0.3,0.21-0.57,0.41-0.83,0.59c-2.7,1.9-3.26,2.29-3.7,6.02L23.74,26.74z"/>
<path class="st0" d="M23.73,20.02c-2.59,0-3.98-3.68-3.98-5.78c0-1.88,1.79-3.41,4-3.41c2.21,0,4,1.52,4,3.41
	C27.75,16.29,26.27,20.02,23.73,20.02z"/>
<path class="st1" d="M23.73,20.73c-3.12,0-4.69-4.16-4.69-6.49c0-2.27,2.11-4.12,4.71-4.12s4.71,1.85,4.71,4.12
	C28.45,16.5,26.83,20.73,23.73,20.73z M23.75,11.54c-1.81,0-3.29,1.21-3.29,2.7c0,1.72,1.16,5.07,3.27,5.07
	c2.02,0,3.31-3.33,3.31-5.07C27.04,12.75,25.56,11.54,23.75,11.54z"/>
<path class="st0" d="M22.86,19.87L22.86,19.87l-0.08-0.03L22.86,19.87L22.86,19.87z M22.05,19.44c-1.31-0.97-2.08-2.98-2.26-4.54
	c-0.5-0.36-1.08-0.76-1.77-1.25L17.6,13.6l-0.1-0.01c-0.49,0.38-1.06,0.6-1.68,0.6c-0.64,0-1.21-0.23-1.7-0.6l-0.04,0.01l-0.42,0.05
	c-0.61,0.44-1.15,0.81-1.61,1.14c-0.2,1.86-1.35,4.53-3.23,5.11v0c0.33-0.1,0.64-0.27,0.93-0.49l0.1,0.01l0.42,0.05
	c1.29,0.93,2.23,1.54,2.92,2.15l2.66-0.01l2.8,0.01c0.69-0.61,1.63-1.22,2.92-2.15l0.42-0.05l0.04-0.01L22.05,19.44z"/>
<path class="st1" d="M12.91,22.34l-0.2-0.18c-0.48-0.42-1.1-0.86-1.89-1.42c-0.26-0.18-0.54-0.38-0.83-0.59l-0.06-0.01
	c-0.2,0.13-0.42,0.25-0.64,0.34c-0.08,0.03-0.17,0.06-0.26,0.09c0,0,0,0-0.01,0l-0.42-1.35c1.44-0.44,2.54-2.69,2.74-4.51l0.03-0.32
	l2.02-1.43l0.88-0.11l0.27,0.17c0.79,0.6,1.71,0.62,2.53,0l0.23-0.17l0.98,0.12l1.11,0.79c0.29,0.2,0.56,0.39,0.8,0.57l0.25,0.18
	l0.04,0.31c0.16,1.35,0.84,3.19,1.97,4.04l0,0h0c0,0,0.01,0.01,0.01,0.01l-0.44,0.59l0.09,0.66l-0.29,0.04
	c-0.3,0.21-0.58,0.41-0.84,0.59c-0.79,0.55-1.41,0.99-1.88,1.41l-0.2,0.18l-3.07-0.01L12.91,22.34z M15.84,20.91l2.55,0.01
	c0.49-0.41,1.08-0.82,1.8-1.33c0.19-0.13,0.38-0.27,0.59-0.42c-0.93-1.13-1.45-2.66-1.64-3.88c-0.17-0.12-0.35-0.25-0.54-0.38
	l-0.89-0.59c-1.18,0.77-2.59,0.75-3.75,0.01l-0.01,0l-1.22,0.86c-0.19,1.19-0.74,2.78-1.69,3.96c0.22,0.15,0.42,0.3,0.62,0.44
	c0.72,0.51,1.31,0.92,1.8,1.33L15.84,20.91z M22.62,20.54l-0.08-0.03l0.48-1.33L22.62,20.54z"/>
<path class="st0" d="M15.82,14.19c-2.59,0-3.98-3.68-3.98-5.78c0-1.88,1.79-3.41,4-3.41c2.21,0,4,1.52,4,3.41
	C19.84,10.45,18.36,14.19,15.82,14.19z"/>
<path class="st1" d="M15.82,14.9c-3.12,0-4.69-4.16-4.69-6.49c0-2.27,2.11-4.12,4.71-4.12s4.71,1.85,4.71,4.12
	C20.55,10.67,18.93,14.9,15.82,14.9z M15.84,5.71c-1.81,0-3.29,1.21-3.29,2.7c0,1.72,1.16,5.07,3.27,5.07
	c2.02,0,3.31-3.33,3.31-5.07C19.13,6.92,17.65,5.71,15.84,5.71z"/>
</svg>
